# xmcd
#
# Track frame offsets:
#	150
#	17313
#	35190
#	52068
#	67258
#	82798
#	101030
#	115738
#	133078
#	149103
#	166513
#	182905
#	209530
#
# Disc length: 2840 seconds
#
# Revision: 1
# Processed by: cddbd v1.5.2PL0 Copyright (c) Steve Scherf et al.
# Submitted via: audiograbber 1.83.01
#
DISCID=be0b160d
DTITLE=Taio Cruz - Departure
DYEAR=1900
DGENRE=Blues
TTITLE0=I'll never love again
TTITLE1=I just wanna know
TTITLE2=I can be
TTITLE3=I don't wanna fall in love
TTITLE4=So cold
TTITLE5=Fly away
TTITLE6=Driving me crazy
TTITLE7=Moving on
TTITLE8=Come on girl
TTITLE9=Never gonna to get us
TTITLE10=She's like a star
TTITLE11=Can't say go
TTITLE12=Data Track
EXTD=
EXTT0=
EXTT1=
EXTT2=
EXTT3=
EXTT4=
EXTT5=
EXTT6=
EXTT7=
EXTT8=
EXTT9=
EXTT10=
EXTT11=
EXTT12=
PLAYORDER=
